<svg id="Calque_1" data-name="Calque 1" xmlns="http://www.w3.org/2000/svg" viewBox="0 0 50.75 78.75">
  <defs>
    <style>.cls-1{fill:none;stroke:rgb(59, 153, 241);stroke-miterlimit:10;stroke-width:0.75px;}.cls-2{fill:rgb(59, 153, 241);}.cls-3{fill:#161827;}</style>
  </defs>
  <rect class="cls-1" x="0.38" y="0.38" width="50" height="78" />
  <path class="cls-2" d="M50.21,64.64A14.82,14.82,0,1,1,65,49.51,14.8,14.8,0,0,1,50.21,64.64Z" transform="translate(-24.63 -10.63)" />
  <path class="cls-3" d="M58.8,48.78H55.21a.27.27,0,0,1-.31-.23,4.88,4.88,0,0,0-9.37-.17c-.15.46,0,.39-.53.39l-6.85,0c-.32,0-.33,0-.29-.31a12.39,12.39,0,0,1,2.84-6.59,12.2,12.2,0,0,1,7.57-4.31,12,12,0,0,1,9.19,2.14,12.27,12.27,0,0,1,5.16,8.36,1.45,1.45,0,0,1,0,.29c0,.4.1.39-.37.4H58.8Z" transform="translate(-24.63 -10.63)" />
  <path class="cls-3" d="M41.54,50.89h3.61a.29.29,0,0,1,.33.24,4.68,4.68,0,0,0,3.25,3.36,4.79,4.79,0,0,0,5.76-2.35,4,4,0,0,0,.42-1c0-.16.13-.2.29-.2,2.36,0,4.73,0,7.1,0,.21,0,.25.07.22.26A12.37,12.37,0,0,1,59,58.48a12.47,12.47,0,0,1-21.27-7.13c-.09-.57-.12-.47.4-.47,1.13,0,2.27,0,3.4,0Z" transform="translate(-24.63 -10.63)" />
  <path class="cls-3" d="M50.17,52.65A2.82,2.82,0,1,1,53,49.88,2.81,2.81,0,0,1,50.17,52.65Z" transform="translate(-24.63 -10.63)" />
</svg>