<svg id="Calque_1" data-name="Calque 1" xmlns="http://www.w3.org/2000/svg" viewBox="0 0 95.18 64.52"><defs><style>.cls-1,.cls-2{fill:#fff;}.cls-2{stroke:#000;stroke-miterlimit:10;}</style></defs><rect class="cls-1" x="7.44" y="25.99" width="41.15" height="54.69" transform="translate(-11.83 -15.31) rotate(-11.37)"/><path d="M42.4,23.06,53,75.7,13.63,83.62,3,31,42.4,23.06m.78-1.18L1.86,30.19l11,54.6,41.32-8.31-11-54.6Z" transform="translate(-1.86 -21.88)"/><line class="cls-2" x1="7.27" y1="42.55" x2="48.22" y2="34.31"/><rect class="cls-1" x="27.76" y="0.62" width="42.13" height="56"/><path d="M71.25,23V78H30.12V23H71.25m1-1H29.12V79H72.25V22Z" transform="translate(-1.86 -21.88)"/><line class="cls-2" x1="27.64" y1="35.93" x2="70.39" y2="35.93"/><rect class="cls-1" x="42.93" y="34.21" width="53.97" height="40.6" transform="matrix(0.26, -0.97, 0.97, 0.26, -2.5, 86.32)"/><path d="M57.54,23.85,95.82,34,82.3,85.18,44,75.07,57.54,23.85m-.71-1.22-14,53.15L83,86.4l14-53.15L56.83,22.63Z" transform="translate(-1.86 -21.88)"/><line class="cls-2" x1="46.5" y1="34.24" x2="86.36" y2="44.76"/></svg>