<svg id="Layer_1" data-name="Layer 1" xmlns="http://www.w3.org/2000/svg" viewBox="0 0 100 100"><defs><style>.cls-1{fill:#f5e8df;}.cls-2{fill:#010101;}.cls-3{fill:#fbfbfb;}</style></defs><circle class="cls-1" cx="50" cy="50" r="50"/><path class="cls-2" d="M74.19,54c4.07,3.91,7.76,8.17,11.53,12.43.31-.64-.08-1-.28-1.46A98.19,98.19,0,0,0,69.18,39.72c-.74-.81-.71-1.15.23-1.72,4.49-2.75,9-5.49,13.65-8A4.21,4.21,0,0,0,85,28.69c-3.91.44-7.38,1.62-11.07,2.13l7.62-5.44c-4,.72-7.6,2.45-11.45,3.54,4.51-3.28,9.4-5.9,14.3-8.86a2.13,2.13,0,0,0-1.54.09,121.52,121.52,0,0,0-23.1,9.14,1.85,1.85,0,0,1-2.3-.11,69.06,69.06,0,0,0-22.7-10.69,11,11,0,0,0-4.34-.8c2.54,1.8,5,3.29,7.28,5.15a1.1,1.1,0,0,0-.18.26A74,74,0,0,0,18.78,18c5.39,3.3,10.78,6.55,15.85,10.33-2.3-.62-4.51-1.47-6.76-2.18a26.54,26.54,0,0,0-7.12-1.65,137.39,137.39,0,0,1,20.54,15c1.09.95,1,1.37-.06,2.26A89.31,89.31,0,0,0,22.78,63.2c-.26.42-.86.78-.43,1.42l0-.05,0,.07c.42-.32.86-.63,1.28-1,2.48-2,4.79-4.28,7.41-6.15l.36.23A86.78,86.78,0,0,0,18.24,82c-.1.28-.51.55,0,.77.3.14.6-.07.83-.36,3.3-4.18,7.26-7.81,10.08-12.42a86.77,86.77,0,0,1,11-15,19.94,19.94,0,0,1,7-5.05c-3.55,4.19-7,8.47-10.24,12.93,1.94-1,3.38-2.67,5-4.07s3.29-2.86,5-4.27,3.41-2.8,5.16-4.23A151.11,151.11,0,0,1,73.62,83.58c-.49-5.5-2-10.79-3.08-16.25l4.95,6.92c-.86-3.73-2.45-7.14-3.7-10.69A229.1,229.1,0,0,1,85.76,85a49.49,49.49,0,0,0-2.16-9.15,92.93,92.93,0,0,0-9.66-21.47Z"/><polygon class="cls-3" points="28.04 43.54 28.08 43.48 28.1 43.52 28.04 43.54"/><path class="cls-2" d="M79.69,33.29c-.23-.14-.5-.39-.33-.61s.43,0,.58.24Z"/><path class="cls-2" d="M43.41,1.75,43.6,2h-.38A1,1,0,0,1,43.41,1.75Z"/><path class="cls-2" d="M36.73,36.42c.11-.21.27-.34.49-.16,0,0-.08.26-.13.39Z"/></svg>