<svg version="1.1" id="Layer_1" xmlns="http://www.w3.org/2000/svg"
	xmlns:xlink="http://www.w3.org/1999/xlink" x="0px" y="0px"
	viewBox="0 0 100 100" style="enable-background:new 0 0 100 100;" xml:space="preserve">
<style type="text/css">
	.st0{fill:#D379B5;}
</style>
<g>
	<circle class="st0" cx="50" cy="50" r="50"/>
	<g id="fairy">
		<path d="M31.9,57.7c-18.1-8.1-9.5-30.7-8.5-33.3C17.6,30.8,14,39.3,14,48.7c0,19.6,15.7,35.5,35.1,35.8
			C49.3,81.9,49.6,65.6,31.9,57.7z"/>
		<path d="M70.5,28.5c-13.9,1.9-19.2-4.3-20.7-13.1c-1.5,8.8-6.8,15-20.7,13.1c10.3,8.2,16.8,8.5,20.7,34.2
			C53.8,37,60.3,36.7,70.5,28.5z"/>
		<path d="M76.2,24.5c1.1,2.6,9.6,25.2-8.5,33.3c-17.6,7.9-17.4,24.2-17.2,26.8C70,84.1,85.7,68.2,85.7,48.7
			C85.7,39.3,82.1,30.8,76.2,24.5z"/>
	</g>
</g>
</svg>