<?xml version="1.0" encoding="utf-8"?>
<!-- Generator: Adobe Illustrator 25.2.0, SVG Export Plug-In . SVG Version: 6.00 Build 0)  -->
<svg version="1.1" id="Layer_1" xmlns="http://www.w3.org/2000/svg" xmlns:xlink="http://www.w3.org/1999/xlink" x="0px" y="0px"
	 viewBox="0 0 100 100" style="enable-background:new 0 0 100 100;" xml:space="preserve">
<style type="text/css">
	.st0{fill:#C6C6C6;fill-opacity:0.41;}
</style>
<g>
	<circle class="st0" cx="50" cy="50" r="50"/>
	<path id="normal" d="M43.4,34.3L50,12.7l6.6,21.6c0.5,1.5,2,2.4,3.6,2.1l22.1-5l-16,16.5c-1.1,1.2-1.1,3,0,4.2l16,16.6l-22-5.8
		c-1.6-0.4-3.2,0.5-3.7,2.1L50,87.3l-6.6-22.2c-0.5-1.6-2.1-2.5-3.7-2.1l-22.1,5.6l16-16.6c1.1-1.2,1.1-3,0-4.2l-16-16.6l22.1,5
		C41.4,36.7,42.9,35.8,43.4,34.3z"/>
</g>
</svg>
