<?xml version="1.0" encoding="utf-8"?>
<!-- Generator: Adobe Illustrator 25.2.0, SVG Export Plug-In . SVG Version: 6.00 Build 0)  -->
<svg version="1.1" id="Layer_1" xmlns="http://www.w3.org/2000/svg" xmlns:xlink="http://www.w3.org/1999/xlink" x="0px" y="0px"
	 viewBox="0 0 100 100" style="enable-background:new 0 0 100 100;" xml:space="preserve">
<style type="text/css">
	.st0{fill:#F2253E;}
</style>
<g>
	<circle class="st0" cx="50" cy="50" r="50"/>
	<path id="fire" d="M70.7,62.9c0,0,14.1-10,13.7-17.6c-0.4-7.6-2.7-8.6-2.7-8.6S78,47.7,64,47.2c0,0,3.7-31.5-17.1-37.2
		c0,0,5.2,7.4,2.9,11.1c-2.3,3.7-12.1,9.6-15,14.3c-2.8,4.6-3.7,10.2-0.8,16c0,0-12.8-7.5-4.7-20.4c0,0-9.9,5.1-10.4,15
		c-0.5,9.9,2.5,15,7.9,21.2c0,0-7.3-1.3-12-6.7c0,0,4.3,27.1,35.5,27.1S89.3,57,89.3,55.2C89.4,55.2,80.5,63.5,70.7,62.9z
		 M64.9,78.1c1.1,3.9-3.6,8.3-15,8.3s-14.9-7-14.1-9.3c0.8-2.2,2.7-2.9,3.1-5.7c0.4-2.8-3.6-4.5-3.6-4.5c5.5-2.2,8.6,4.5,8.6,4.5
		c2-1.1,2.2-3.4,1.9-5.5c-0.2-2-6.1-4.1-3-8.8c3.1-4.6,10.3-5.4,10.3-5.4s-2.5,3.3-3,5.2c-0.5,1.9,3.1,3.7,4.4,5.4
		c1.3,1.7,1.3,6.7,1.3,6.7c4-6.8,9.9-5.5,9.9-5.5C58.1,69.9,63.8,74.3,64.9,78.1z"/>
</g>
</svg>
