<?xml version="1.0" encoding="utf-8"?>
<!-- Generator: Adobe Illustrator 25.2.0, SVG Export Plug-In . SVG Version: 6.00 Build 0)  -->
<svg version="1.1" id="Layer_1" xmlns="http://www.w3.org/2000/svg" xmlns:xlink="http://www.w3.org/1999/xlink" x="0px" y="0px"
	 viewBox="0 0 100 100" style="enable-background:new 0 0 100 100;" xml:space="preserve">
<style type="text/css">
	.st0{fill:#B372B7;}
</style>
<g>
	<circle class="st0" cx="50" cy="50" r="50"/>
	<path id="psychic" d="M49.6,20.8C22.8,20.8,10,49.9,10,49.9s12.8,29.1,39.6,29.1S90,49.9,90,49.9S76.5,20.8,49.6,20.8z M43,49.9
		c3.6,0,6.6-2.9,6.6-6.6c0-2.5-1.5-4.8-3.6-5.9c1.1-0.4,2.3-0.7,3.6-0.7c5.4,0,9.7,4.3,9.7,9.7s-4.3,9.7-9.7,9.7
		c-4.4,0-8.1-2.9-9.3-6.9C41.2,49.6,42.1,49.9,43,49.9z M49.7,72.2c-21.4,0-31.6-22.3-31.6-22.3s7.2-15.7,22.1-20.8
		c-6.3,3.4-10.7,10-10.7,17.7c0,11.1,9,20.1,20.1,20.1s20.1-9,20.1-20.1c0-7.8-4.5-14.6-11-17.9c15.4,4.9,23.2,21,23.2,21
		S71.1,72.2,49.7,72.2z"/>
</g>
</svg>
