<?xml version="1.0" encoding="utf-8"?>
<!-- Generator: Adobe Illustrator 25.2.0, SVG Export Plug-In . SVG Version: 6.00 Build 0)  -->
<svg version="1.1" id="Layer_1" xmlns="http://www.w3.org/2000/svg" xmlns:xlink="http://www.w3.org/1999/xlink" x="0px" y="0px"
	 viewBox="0 0 100 100" style="enable-background:new 0 0 100 100;" xml:space="preserve">
<style type="text/css">
	.st0{fill:#E55242;}
</style>
<g>
	<circle class="st0" cx="50" cy="50" r="50"/>
	<g id="fighting">
		<path d="M23.2,47.9h7.2c1.5,0,2.7-1.2,2.7-2.7V27c0-1.5-1.2-2.7-2.7-2.7h-7.2c-1.5,0-2.7,1.2-2.7,2.7v18.2
			C20.5,46.7,21.7,47.9,23.2,47.9z"/>
		<path d="M75,24.2h-7.2c-1.5,0-2.7,1.2-2.7,2.7v18.2c0,1.5,1.2,2.7,2.7,2.7H75c1.5,0,2.7-1.2,2.7-2.7V27
			C77.8,25.5,76.5,24.2,75,24.2z"/>
		<path d="M53.4,47.9h7.2c1.5,0,2.7-1.2,2.7-2.7v-22c0-1.5-1.2-2.7-2.7-2.7h-7.2c-1.5,0-2.7,1.2-2.7,2.7v22
			C50.6,46.7,51.9,47.9,53.4,47.9z"/>
		<path d="M38,47.9h7.2c1.5,0,2.7-1.2,2.7-2.7v-22c0-1.5-1.2-2.7-2.7-2.7H38c-1.5,0-2.7,1.2-2.7,2.7v22C35.2,46.7,36.5,47.9,38,47.9
			z"/>
		<path d="M38.8,69.9v-0.7v-1.5c0-2.8,2.2-5,5-5h1.4h0.6c2.8,0,5-2.2,5-5v-2.2c0-2.8-2.2-5-5-5H33.8h-1.1h-7.3c-2.8,0-5,2.2-5,5
			v14.4c0,2.8,2.2,5,5,5h8.4C36.6,74.9,38.8,72.7,38.8,69.9z"/>
		<path d="M72.8,50.5H58.9c-2.8,0-5,2.2-5,5v4.4v0.7c0,2.8-2.2,5-5,5h-0.4h-1.9c-2.8,0-5,2.2-5,5v1.7v0.6c0,2.8-2.2,5-5,5h0h-0.1v0
			c-0.3,0-0.6,0.3-0.6,0.7v4.6c0,0.4,0.3,0.7,0.7,0.7h10h11.6h4.3c0.4,0,0.7-0.3,0.7-0.7v-2.3v-0.9c0-2.8,2.2-5,5-5h0.7h4
			c2.8,0,5-2.2,5-5V55.5C77.8,52.7,75.5,50.5,72.8,50.5z"/>
	</g>
</g>
</svg>
